#!OML:ASF F:\VICON\USERDATA\INSTALL\rory3\rory3.ASF
:FULLY-SPECIFIED
:DEGREES
1600
root -2.14118 17.6468 1.02626 8.10574 0.75922 2.59108
lowerback 8.80672 -0.0949411 -3.91887
upperback -0.62031 -0.453798 1.58406
thorax -5.55613 -0.0827332 3.93075
lowerneck -25.3467 -0.494967 -9.16101
upperneck 23.4328 2.2549 2.31132
head 11.7661 0.479094 2.76345
rclavicle -5.56597e-015 0
rhumerus -43.3942 -23.5192 -46.0866
rradius 50.7665
rwrist 3.06813
rhand -35.5255 0.272477
rfingers 7.12502
rthumb -8.6519 -29.5302
lclavicle -5.56597e-015 0
lhumerus -40.2398 26.3539 53.3942
lradius 47.0271
lwrist 4.27418
lhand -23.8437 18.185
lfingers 7.12502
lthumb 2.62827 48.1485
rfemur -19.2182 -4.16157 16.6427
rtibia 37.3179
rfoot -22.8453 -4.07367
rtoes 7.22806
lfemur -16.4273 0.0423977 -17.8762
ltibia 30.8136
lfoot -15.3437 6.19586
ltoes -24.1427
1601
root -2.15516 17.6469 1.01603 8.06129 0.773751 2.57649
lowerback 8.92824 -0.0792055 -3.82667
upperback -0.705123 -0.431212 1.53013
thorax -5.71733 -0.0697298 3.82132
lowerneck -25.3122 -0.464873 -9.10821
upperneck 23.5464 2.27674 2.30685
head 11.8025 0.489127 2.75914
rclavicle 2.98177e-016 -7.95139e-015
rhumerus -43.4775 -23.4555 -46.3196
rradius 51.5507
rwrist 3.32439
rhand -35.3709 0.554106
rfingers 7.12502
rthumb -8.50277 -29.2547
lclavicle 2.98177e-016 -7.95139e-015
lhumerus -40.1447 26.0443 53.5376
lradius 47.597
lwrist 4.56614
lhand -24.0267 18.6194
lfingers 7.12502
lthumb 2.45157 48.5851
rfemur -19.1844 -4.04349 16.706
rtibia 37.3154
rfoot -22.8509 -4.18505
rtoes 7.16671
lfemur -16.2581 -0.291187 -17.8132
ltibia 30.6028
lfoot -15.426 6.50283
ltoes -23.5576
1602
root -2.16977 17.6478 1.00223 8.04802 0.731009 2.52184
lowerback 9.01067 -0.0278185 -3.69234
upperback -0.752186 -0.354051 1.48488
thorax -5.82164 -0.0333301 3.68852
lowerneck -25.4054 -0.476022 -9.10376
upperneck 23.7085 2.27291 2.31021
head 11.8832 0.482161 2.76414
rclavicle 8.74653e-015 -1.59028e-015
rhumerus -43.4302 -23.4393 -46.5888
rradius 52.2075
rwrist 3.63245
rhand -35.2568 0.807208
rfingers 7.12502
rthumb -8.39259 -29.0061
lclavicle 8.74653e-015 -1.59028e-015
lhumerus -39.9836 25.8061 53.7417
lradius 48.1669
lwrist 4.9143
lhand -24.1905 18.591
lfingers 7.12502
lthumb 2.29339 48.5584
rfemur -19.2605 -3.86906 16.8167
rtibia 37.3672
rfoot -22.8535 -4.34985
rtoes 6.94267
lfemur -16.1718 -0.647412 -17.7067
ltibia 30.4287
lfoot -15.4043 6.93956
ltoes -23.3784
1603
root -2.18521 17.6498 0.98841 8.00991 0.651101 2.42808
lowerback 9.10457 0.0205761 -3.61807
upperback -0.773073 -0.283234 1.51055
thorax -5.90351 0.00189333 3.66511
lowerneck -25.4163 -0.448956 -9.05476
upperneck 23.7577 2.31912 2.22496
head 11.9037 0.4937 2.73289
rclavicle -5.36719e-015 3.18055e-015
rhumerus -43.2291 -23.3162 -46.9334
rradius 52.7891
rwrist 4.21046
rhand -35.1984 1.38602
rfingers 7.12502
rthumb -8.33621 -28.4295
lclavicle -5.36719e-015 3.18055e-015
lhumerus -39.8352 25.8038 53.9467
lradius 48.6481
lwrist 5.06573
lhand -24.2557 18.7319
lfingers 7.12502
lthumb 2.23042 48.6999
rfemur -19.3291 -3.75027 16.9766
rtibia 37.4024
rfoot -22.7918 -4.53878
rtoes 6.47056
lfemur -16.145 -0.891273 -17.5713
ltibia 30.3319
lfoot -15.2846 7.41035
ltoes -23.5975
1604
root -2.19763 17.6539 0.977112 7.93221 0.633787 2.15291
lowerback 9.19399 0.0325471 -3.34123
upperback -0.753697 -0.233745 1.60228
thorax -5.93829 0.0193949 3.59881
lowerneck -25.3976 -0.41653 -8.9956
upperneck 23.7187 2.37671 2.09379
head 11.8848 0.508175 2.68201
rclavicle 5.56597e-015 -2.38542e-015
rhumerus -42.9889 -23.1586 -47.3164
rradius 53.3632
rwrist 5.05772
rhand -35.1994 1.92804
rfingers 7.12502
rthumb -8.3372 -27.8874
lclavicle 5.56597e-015 -2.38542e-015
lhumerus -39.7458 25.8622 54.1827
lradius 49.1359
lwrist 5.08501
lhand -24.1995 18.6699
lfingers 7.12502
lthumb 2.28464 48.6374
rfemur -19.3062 -3.88155 17.3298
rtibia 37.3891
rfoot -22.6665 -4.51671
rtoes 6.23455
lfemur -16.0976 -1.10293 -17.2479
ltibia 30.3102
lfoot -15.1938 7.81791
ltoes -24.1615
1605
root -2.21161 17.6604 0.967489 7.90322 0.673442 1.95042
lowerback 9.20209 0.0304428 -3.1667
upperback -0.759111 -0.210803 1.71148
thorax -5.95057 0.0272912 3.61195
lowerneck -25.2783 -0.380268 -9.04504
upperneck 23.658 2.45339 2.02237
head 11.8352 0.530633 2.67293
rclavicle 2.28602e-015 3.97569e-015
rhumerus -42.8319 -22.8876 -47.6304
rradius 53.9974
rwrist 5.7875
rhand -35.2629 2.70246
rfingers 7.12502
rthumb -8.39852 -27.1106
lclavicle 2.28602e-015 3.97569e-015
lhumerus -39.7574 25.8721 54.4847
lradius 49.6505
lwrist 5.1637
lhand -24.1206 18.4011
lfingers 7.12502
lthumb 2.36091 48.3678
rfemur -19.2757 -4.19397 17.6037
rtibia 37.3114
rfoot -22.5248 -4.26325
rtoes 6.47055
lfemur -16.0973 -1.39462 -16.9867
ltibia 30.3437
lfoot -15.1619 8.17574
ltoes -24.5675
1606
root -2.22506 17.6649 0.959525 7.89578 0.723283 1.8747
lowerback 9.10619 0.0412209 -3.08253
upperback -0.722661 -0.18136 1.7631
thorax -5.8602 0.0374839 3.61298
lowerneck -25.2564 -0.3725 -9.04877
upperneck 23.6394 2.48925 1.93238
head 11.824 0.534637 2.64479
rclavicle -1.60022e-014 -1.59028e-015
rhumerus -42.6814 -22.6072 -48.0002
rradius 54.7015
rwrist 6.25092
rhand -35.2796 3.39463
rfingers 7.12502
rthumb -8.4146 -26.4177
lclavicle -1.60022e-014 -1.59028e-015
lhumerus -39.6166 25.8877 54.894
lradius 50.1265
lwrist 5.38007
lhand -24.2205 18.4407
lfingers 7.12502
lthumb 2.26439 48.4085
rfemur -19.2247 -4.50184 17.7321
rtibia 37.1742
rfoot -22.3925 -4.00752
rtoes 6.90344
lfemur -16.1281 -1.72086 -16.8692
ltibia 30.3936
lfoot -15.0491 8.54736
ltoes -24.8662
1607
root -2.2408 17.671 0.952283 7.87622 0.779239 1.89425
lowerback 8.98055 0.0558486 -3.10751
upperback -0.631136 -0.160984 1.76434
thorax -5.69418 0.0433996 3.62323
lowerneck -25.3856 -0.396563 -9.02585
upperneck 23.6495 2.47357 1.89004
head 11.8546 0.522997 2.62423
rclavicle -3.57812e-015 -1.43125e-014
rhumerus -42.4776 -22.3428 -48.5087
rradius 55.3933
rwrist 6.59915
rhand -35.4397 3.41017
rfingers 7.12502
rthumb -8.5691 -26.3959
lclavicle -3.57812e-015 -1.43125e-014
lhumerus -39.4207 25.8979 55.3093
lradius 50.6028
lwrist 5.51753
lhand -24.1277 18.3372
lfingers 7.12502
lthumb 2.35405 48.304
rfemur -19.1407 -4.75667 17.7799
rtibia 37.0156
rfoot -22.2899 -3.85401
rtoes 6.98118
lfemur -16.1372 -2.03433 -16.8392
ltibia 30.4063
lfoot -14.905 8.81932
ltoes -24.7419
1608
root -2.26137 17.6829 0.943437 7.77455 0.810726 2.0021
lowerback 9.00661 0.0710476 -3.28441
upperback -0.551578 -0.161285 1.74709
thorax -5.62504 0.0455845 3.70498
lowerneck -25.4743 -0.39341 -9.04928
upperneck 23.6786 2.49539 1.8995
head 11.8809 0.530475 2.63702
rclavicle 4.47266e-015 -1.66979e-014
rhumerus -42.3044 -22.0175 -49.093
rradius 56.1165
rwrist 6.96715
rhand -35.6091 3.20741
rfingers 7.12502
rthumb -8.73256 -26.5919
lclavicle 4.47266e-015 -1.66979e-014
lhumerus -39.2907 25.8249 55.6796
lradius 51.0399
lwrist 5.61658
lhand -24.1369 18.0117
lfingers 7.12502
lthumb 2.34513 47.9786
rfemur -18.9726 -4.85784 17.7406
rtibia 36.8413
rfoot -22.2262 -3.85278
rtoes 6.98427
lfemur -16.0248 -2.23318 -16.8901
ltibia 30.3733
lfoot -14.803 8.9402
ltoes -24.2139
